<mxfile host="65bd71144e">
    <diagram id="BTKypEaIUyDzORne2_8f" name="总体架构">
        <mxGraphModel dx="1324" dy="488" grid="0" gridSize="10" guides="1" tooltips="1" connect="1" arrows="1" fold="1" page="0" pageScale="1" pageWidth="827" pageHeight="1169" math="0" shadow="0">
            <root>
                <mxCell id="0"/>
                <mxCell id="1" parent="0"/>
                <mxCell id="I93BIOlDC6KEQSAcMWUn-3" value="" style="edgeStyle=none;html=1;rounded=0;exitX=0.5;exitY=1;exitDx=0;exitDy=0;" parent="1" source="I93BIOlDC6KEQSAcMWUn-1" target="I93BIOlDC6KEQSAcMWUn-2" edge="1">
                    <mxGeometry relative="1" as="geometry">
                        <Array as="points">
                            <mxPoint x="198" y="210"/>
                            <mxPoint x="279" y="210"/>
                        </Array>
                    </mxGeometry>
                </mxCell>
                <mxCell id="I93BIOlDC6KEQSAcMWUn-30" value="" style="edgeStyle=none;html=1;fontSize=18;startArrow=classic;startFill=1;entryX=0;entryY=0.5;entryDx=0;entryDy=0;rounded=0;" parent="1" source="I93BIOlDC6KEQSAcMWUn-1" target="I93BIOlDC6KEQSAcMWUn-26" edge="1">
                    <mxGeometry relative="1" as="geometry">
                        <mxPoint x="291" y="135" as="targetPoint"/>
                    </mxGeometry>
                </mxCell>
                <mxCell id="I93BIOlDC6KEQSAcMWUn-1" value="&lt;h2&gt;模拟器&lt;/h2&gt;" style="whiteSpace=wrap;html=1;rounded=0;" parent="1" vertex="1">
                    <mxGeometry x="138" y="105" width="120" height="60" as="geometry"/>
                </mxCell>
                <mxCell id="I93BIOlDC6KEQSAcMWUn-17" value="" style="edgeStyle=none;html=1;fontSize=18;startArrow=none;startFill=0;entryX=0.5;entryY=0;entryDx=0;entryDy=0;rounded=0;exitX=0.5;exitY=1;exitDx=0;exitDy=0;" parent="1" source="I93BIOlDC6KEQSAcMWUn-2" target="I93BIOlDC6KEQSAcMWUn-23" edge="1">
                    <mxGeometry relative="1" as="geometry">
                        <mxPoint x="224" y="309" as="sourcePoint"/>
                        <mxPoint x="52.33333333333326" y="360" as="targetPoint"/>
                        <Array as="points">
                            <mxPoint x="280" y="330"/>
                            <mxPoint x="220" y="330"/>
                        </Array>
                    </mxGeometry>
                </mxCell>
                <mxCell id="I93BIOlDC6KEQSAcMWUn-2" value="&lt;h2&gt;处理器&lt;/h2&gt;" style="whiteSpace=wrap;html=1;rounded=0;" parent="1" vertex="1">
                    <mxGeometry x="219" y="249" width="120" height="60" as="geometry"/>
                </mxCell>
                <mxCell id="I93BIOlDC6KEQSAcMWUn-33" value="" style="edgeStyle=none;html=1;fontSize=18;startArrow=none;startFill=0;entryX=0.5;entryY=0;entryDx=0;entryDy=0;exitX=0.5;exitY=1;exitDx=0;exitDy=0;rounded=0;" parent="1" source="I93BIOlDC6KEQSAcMWUn-6" target="I93BIOlDC6KEQSAcMWUn-32" edge="1">
                    <mxGeometry relative="1" as="geometry">
                        <Array as="points">
                            <mxPoint x="-65" y="340"/>
                            <mxPoint x="-215" y="340"/>
                        </Array>
                    </mxGeometry>
                </mxCell>
                <mxCell id="I93BIOlDC6KEQSAcMWUn-6" value="&lt;h2&gt;外设模块&lt;/h2&gt;" style="whiteSpace=wrap;html=1;rounded=0;" parent="1" vertex="1">
                    <mxGeometry x="-125" y="249" width="120" height="60" as="geometry"/>
                </mxCell>
                <mxCell id="I93BIOlDC6KEQSAcMWUn-7" value="&lt;h2&gt;图形交互模块&lt;/h2&gt;" style="whiteSpace=wrap;html=1;rounded=0;" parent="1" vertex="1">
                    <mxGeometry x="391" y="249" width="120" height="60" as="geometry"/>
                </mxCell>
                <mxCell id="I93BIOlDC6KEQSAcMWUn-8" value="" style="edgeStyle=none;html=1;entryX=0.5;entryY=0;entryDx=0;entryDy=0;exitX=0.5;exitY=1;exitDx=0;exitDy=0;rounded=0;" parent="1" source="I93BIOlDC6KEQSAcMWUn-1" target="I93BIOlDC6KEQSAcMWUn-6" edge="1">
                    <mxGeometry relative="1" as="geometry">
                        <mxPoint x="289" y="179" as="sourcePoint"/>
                        <mxPoint x="289" y="259" as="targetPoint"/>
                        <Array as="points">
                            <mxPoint x="198" y="210"/>
                            <mxPoint x="-65" y="210"/>
                        </Array>
                    </mxGeometry>
                </mxCell>
                <mxCell id="I93BIOlDC6KEQSAcMWUn-9" value="" style="edgeStyle=none;html=1;entryX=0.5;entryY=0;entryDx=0;entryDy=0;exitX=0.5;exitY=1;exitDx=0;exitDy=0;rounded=0;" parent="1" source="I93BIOlDC6KEQSAcMWUn-1" target="I93BIOlDC6KEQSAcMWUn-7" edge="1">
                    <mxGeometry relative="1" as="geometry">
                        <mxPoint x="289" y="179" as="sourcePoint"/>
                        <mxPoint x="145" y="259" as="targetPoint"/>
                        <Array as="points">
                            <mxPoint x="198" y="210"/>
                            <mxPoint x="279" y="210"/>
                            <mxPoint x="451" y="209"/>
                        </Array>
                    </mxGeometry>
                </mxCell>
                <mxCell id="I93BIOlDC6KEQSAcMWUn-13" value="&lt;h2&gt;总线模块&lt;/h2&gt;" style="whiteSpace=wrap;html=1;rounded=0;" parent="1" vertex="1">
                    <mxGeometry x="47" y="249" width="120" height="60" as="geometry"/>
                </mxCell>
                <mxCell id="I93BIOlDC6KEQSAcMWUn-15" value="" style="edgeStyle=none;html=1;exitX=0.5;exitY=1;exitDx=0;exitDy=0;rounded=0;entryX=0.5;entryY=0;entryDx=0;entryDy=0;" parent="1" source="I93BIOlDC6KEQSAcMWUn-1" target="I93BIOlDC6KEQSAcMWUn-13" edge="1">
                    <mxGeometry relative="1" as="geometry">
                        <mxPoint x="289" y="179" as="sourcePoint"/>
                        <mxPoint x="-55" y="259" as="targetPoint"/>
                        <Array as="points">
                            <mxPoint x="198" y="210"/>
                            <mxPoint x="107" y="210"/>
                        </Array>
                    </mxGeometry>
                </mxCell>
                <mxCell id="I93BIOlDC6KEQSAcMWUn-21" value="&lt;h2&gt;中断模块&lt;/h2&gt;" style="whiteSpace=wrap;html=1;rounded=0;" parent="1" vertex="1">
                    <mxGeometry x="330" y="360" width="120" height="60" as="geometry"/>
                </mxCell>
                <mxCell id="I93BIOlDC6KEQSAcMWUn-22" value="&lt;h2&gt;异常模块&lt;/h2&gt;" style="whiteSpace=wrap;html=1;rounded=0;" parent="1" vertex="1">
                    <mxGeometry x="500" y="360" width="120" height="60" as="geometry"/>
                </mxCell>
                <mxCell id="I93BIOlDC6KEQSAcMWUn-23" value="&lt;h2&gt;处理器模块&lt;/h2&gt;" style="whiteSpace=wrap;html=1;rounded=0;" parent="1" vertex="1">
                    <mxGeometry x="160" y="360" width="120" height="60" as="geometry"/>
                </mxCell>
                <mxCell id="I93BIOlDC6KEQSAcMWUn-24" value="" style="edgeStyle=none;html=1;fontSize=18;startArrow=none;startFill=0;entryX=0.5;entryY=0;entryDx=0;entryDy=0;exitX=0.5;exitY=1;exitDx=0;exitDy=0;rounded=0;" parent="1" source="I93BIOlDC6KEQSAcMWUn-2" target="I93BIOlDC6KEQSAcMWUn-22" edge="1">
                    <mxGeometry relative="1" as="geometry">
                        <mxPoint x="224" y="309" as="sourcePoint"/>
                        <mxPoint x="126" y="385" as="targetPoint"/>
                        <Array as="points">
                            <mxPoint x="280" y="330"/>
                            <mxPoint x="560" y="330"/>
                        </Array>
                    </mxGeometry>
                </mxCell>
                <mxCell id="I93BIOlDC6KEQSAcMWUn-25" value="" style="edgeStyle=none;html=1;fontSize=18;startArrow=none;startFill=0;entryX=0.5;entryY=0;entryDx=0;entryDy=0;exitX=0.5;exitY=1;exitDx=0;exitDy=0;rounded=0;" parent="1" source="I93BIOlDC6KEQSAcMWUn-2" target="I93BIOlDC6KEQSAcMWUn-21" edge="1">
                    <mxGeometry relative="1" as="geometry">
                        <mxPoint x="224" y="309" as="sourcePoint"/>
                        <mxPoint x="64" y="364" as="targetPoint"/>
                        <Array as="points">
                            <mxPoint x="280" y="330"/>
                            <mxPoint x="390" y="330"/>
                        </Array>
                    </mxGeometry>
                </mxCell>
                <mxCell id="pbno2CQbFt3WqKcfYgoT-5" value="" style="edgeStyle=none;html=1;" edge="1" parent="1" source="I93BIOlDC6KEQSAcMWUn-26" target="pbno2CQbFt3WqKcfYgoT-3">
                    <mxGeometry relative="1" as="geometry">
                        <Array as="points">
                            <mxPoint x="691" y="211"/>
                            <mxPoint x="813" y="211"/>
                        </Array>
                    </mxGeometry>
                </mxCell>
                <mxCell id="I93BIOlDC6KEQSAcMWUn-26" value="&lt;h2&gt;差分验证模块&lt;/h2&gt;" style="whiteSpace=wrap;html=1;rounded=0;" parent="1" vertex="1">
                    <mxGeometry x="631" y="105" width="120" height="60" as="geometry"/>
                </mxCell>
                <mxCell id="I93BIOlDC6KEQSAcMWUn-32" value="&lt;font style=&quot;font-size: 20px;&quot;&gt;Clint&lt;/font&gt;" style="whiteSpace=wrap;html=1;rounded=0;horizontal=1;verticalAlign=middle;" parent="1" vertex="1">
                    <mxGeometry x="-240" y="360" width="50" height="110" as="geometry"/>
                </mxCell>
                <mxCell id="I93BIOlDC6KEQSAcMWUn-34" value="&lt;font style=&quot;font-size: 20px;&quot;&gt;Dram&lt;/font&gt;" style="whiteSpace=wrap;html=1;rounded=0;horizontal=1;verticalAlign=middle;" parent="1" vertex="1">
                    <mxGeometry x="-160" y="360" width="50" height="110" as="geometry"/>
                </mxCell>
                <mxCell id="I93BIOlDC6KEQSAcMWUn-35" value="&lt;span style=&quot;font-size: 20px;&quot;&gt;Plic&lt;/span&gt;" style="whiteSpace=wrap;html=1;rounded=0;horizontal=1;verticalAlign=middle;" parent="1" vertex="1">
                    <mxGeometry x="-90" y="360" width="50" height="110" as="geometry"/>
                </mxCell>
                <mxCell id="I93BIOlDC6KEQSAcMWUn-36" value="&lt;span style=&quot;font-size: 20px;&quot;&gt;Uart&lt;/span&gt;" style="whiteSpace=wrap;html=1;rounded=0;horizontal=1;verticalAlign=middle;" parent="1" vertex="1">
                    <mxGeometry x="-20" y="360" width="50" height="110" as="geometry"/>
                </mxCell>
                <mxCell id="I93BIOlDC6KEQSAcMWUn-37" value="&lt;span style=&quot;font-size: 20px;&quot;&gt;Virtio&lt;br&gt;blk&lt;/span&gt;" style="html=1;rounded=0;whiteSpace=wrap;horizontal=1;verticalAlign=middle;" parent="1" vertex="1">
                    <mxGeometry x="60" y="360" width="50" height="110" as="geometry"/>
                </mxCell>
                <mxCell id="I93BIOlDC6KEQSAcMWUn-38" value="" style="edgeStyle=none;html=1;fontSize=18;startArrow=none;startFill=0;entryX=0.5;entryY=0;entryDx=0;entryDy=0;exitX=0.5;exitY=1;exitDx=0;exitDy=0;rounded=0;" parent="1" source="I93BIOlDC6KEQSAcMWUn-6" target="I93BIOlDC6KEQSAcMWUn-34" edge="1">
                    <mxGeometry relative="1" as="geometry">
                        <mxPoint x="-55" y="319" as="sourcePoint"/>
                        <mxPoint x="-212.5" y="374" as="targetPoint"/>
                        <Array as="points">
                            <mxPoint x="-65" y="340"/>
                            <mxPoint x="-135" y="340"/>
                        </Array>
                    </mxGeometry>
                </mxCell>
                <mxCell id="I93BIOlDC6KEQSAcMWUn-39" value="" style="edgeStyle=none;html=1;fontSize=18;startArrow=none;startFill=0;entryX=0.5;entryY=0;entryDx=0;entryDy=0;exitX=0.5;exitY=1;exitDx=0;exitDy=0;rounded=0;" parent="1" source="I93BIOlDC6KEQSAcMWUn-6" target="I93BIOlDC6KEQSAcMWUn-35" edge="1">
                    <mxGeometry relative="1" as="geometry">
                        <mxPoint x="-55" y="319" as="sourcePoint"/>
                        <mxPoint x="-137.5" y="374" as="targetPoint"/>
                        <Array as="points">
                            <mxPoint x="-65" y="340"/>
                        </Array>
                    </mxGeometry>
                </mxCell>
                <mxCell id="I93BIOlDC6KEQSAcMWUn-40" value="" style="edgeStyle=none;html=1;fontSize=18;startArrow=none;startFill=0;entryX=0.5;entryY=0;entryDx=0;entryDy=0;exitX=0.5;exitY=1;exitDx=0;exitDy=0;rounded=0;" parent="1" source="I93BIOlDC6KEQSAcMWUn-6" target="I93BIOlDC6KEQSAcMWUn-36" edge="1">
                    <mxGeometry relative="1" as="geometry">
                        <mxPoint x="-50" y="313" as="sourcePoint"/>
                        <mxPoint x="-200" y="364" as="targetPoint"/>
                        <Array as="points">
                            <mxPoint x="-65" y="340"/>
                            <mxPoint x="5" y="340"/>
                        </Array>
                    </mxGeometry>
                </mxCell>
                <mxCell id="I93BIOlDC6KEQSAcMWUn-41" value="" style="edgeStyle=none;html=1;fontSize=18;startArrow=none;startFill=0;entryX=0.5;entryY=0;entryDx=0;entryDy=0;exitX=0.5;exitY=1;exitDx=0;exitDy=0;rounded=0;" parent="1" source="I93BIOlDC6KEQSAcMWUn-6" target="I93BIOlDC6KEQSAcMWUn-37" edge="1">
                    <mxGeometry relative="1" as="geometry">
                        <mxPoint x="-65" y="313" as="sourcePoint"/>
                        <mxPoint x="5" y="364" as="targetPoint"/>
                        <Array as="points">
                            <mxPoint x="-65" y="340"/>
                            <mxPoint x="85" y="340"/>
                        </Array>
                    </mxGeometry>
                </mxCell>
                <mxCell id="h0KfMxifnxzuF65pfsmT-2" value="" style="edgeStyle=none;html=1;" edge="1" parent="1" source="pbno2CQbFt3WqKcfYgoT-3" target="h0KfMxifnxzuF65pfsmT-1">
                    <mxGeometry relative="1" as="geometry"/>
                </mxCell>
                <mxCell id="pbno2CQbFt3WqKcfYgoT-3" value="&lt;h2&gt;接口模块&lt;/h2&gt;" style="whiteSpace=wrap;html=1;rounded=0;" vertex="1" parent="1">
                    <mxGeometry x="751" y="258" width="120" height="60" as="geometry"/>
                </mxCell>
                <mxCell id="h0KfMxifnxzuF65pfsmT-1" value="&lt;h2&gt;动态链接库&lt;/h2&gt;" style="whiteSpace=wrap;html=1;rounded=0;" vertex="1" parent="1">
                    <mxGeometry x="751" y="360" width="120" height="60" as="geometry"/>
                </mxCell>
            </root>
        </mxGraphModel>
    </diagram>
    <diagram id="4_9i0YFcN9L-n9o97Wvs" name="差分测试">
        <mxGraphModel dx="1198" dy="888" grid="0" gridSize="10" guides="1" tooltips="1" connect="1" arrows="1" fold="1" page="0" pageScale="1" pageWidth="827" pageHeight="1169" math="0" shadow="0">
            <root>
                <mxCell id="0"/>
                <mxCell id="1" parent="0"/>
                <mxCell id="7" value="" style="edgeStyle=none;html=1;" parent="1" source="2" target="6" edge="1">
                    <mxGeometry relative="1" as="geometry"/>
                </mxCell>
                <mxCell id="8" value="" style="edgeStyle=none;html=1;" parent="1" source="2" target="6" edge="1">
                    <mxGeometry relative="1" as="geometry"/>
                </mxCell>
                <mxCell id="9" value="" style="edgeStyle=none;html=1;" parent="1" source="2" target="6" edge="1">
                    <mxGeometry relative="1" as="geometry"/>
                </mxCell>
                <mxCell id="12" value="" style="edgeStyle=none;html=1;" parent="1" source="2" target="11" edge="1">
                    <mxGeometry relative="1" as="geometry"/>
                </mxCell>
                <mxCell id="2" value="&lt;h2&gt;emulator&lt;/h2&gt;" style="whiteSpace=wrap;html=1;" parent="1" vertex="1">
                    <mxGeometry x="420" y="40" width="120" height="60" as="geometry"/>
                </mxCell>
                <mxCell id="5" value="" style="edgeStyle=none;html=1;" parent="1" source="4" target="2" edge="1">
                    <mxGeometry relative="1" as="geometry"/>
                </mxCell>
                <mxCell id="4" value="&lt;h2&gt;main&lt;/h2&gt;" style="whiteSpace=wrap;html=1;" parent="1" vertex="1">
                    <mxGeometry x="420" y="-60" width="120" height="60" as="geometry"/>
                </mxCell>
                <mxCell id="14" value="" style="edgeStyle=none;html=1;" parent="1" source="6" target="13" edge="1">
                    <mxGeometry relative="1" as="geometry"/>
                </mxCell>
                <mxCell id="6" value="&lt;h2&gt;dut&lt;/h2&gt;" style="whiteSpace=wrap;html=1;" parent="1" vertex="1">
                    <mxGeometry x="280" y="160" width="120" height="60" as="geometry"/>
                </mxCell>
                <mxCell id="16" value="" style="edgeStyle=none;html=1;" parent="1" source="11" target="15" edge="1">
                    <mxGeometry relative="1" as="geometry"/>
                </mxCell>
                <mxCell id="31" value="" style="edgeStyle=none;shape=flexArrow;html=1;startArrow=block;" parent="1" source="11" target="30" edge="1">
                    <mxGeometry relative="1" as="geometry">
                        <Array as="points">
                            <mxPoint x="820" y="190"/>
                        </Array>
                    </mxGeometry>
                </mxCell>
                <mxCell id="11" value="&lt;h2&gt;cpu&lt;/h2&gt;" style="whiteSpace=wrap;html=1;" parent="1" vertex="1">
                    <mxGeometry x="560" y="160" width="120" height="60" as="geometry"/>
                </mxCell>
                <mxCell id="18" value="" style="edgeStyle=none;html=1;" parent="1" source="13" target="17" edge="1">
                    <mxGeometry relative="1" as="geometry"/>
                </mxCell>
                <mxCell id="13" value="&lt;h2&gt;step&lt;/h2&gt;" style="whiteSpace=wrap;html=1;" parent="1" vertex="1">
                    <mxGeometry x="280" y="280" width="120" height="60" as="geometry"/>
                </mxCell>
                <mxCell id="19" value="" style="edgeStyle=none;html=1;" parent="1" source="15" target="17" edge="1">
                    <mxGeometry relative="1" as="geometry"/>
                </mxCell>
                <mxCell id="15" value="&lt;h2&gt;exec&lt;/h2&gt;" style="whiteSpace=wrap;html=1;" parent="1" vertex="1">
                    <mxGeometry x="560" y="280" width="120" height="60" as="geometry"/>
                </mxCell>
                <mxCell id="17" value="&lt;h3&gt;difftest&lt;/h3&gt;" style="rhombus;whiteSpace=wrap;html=1;" parent="1" vertex="1">
                    <mxGeometry x="440" y="270" width="80" height="80" as="geometry"/>
                </mxCell>
                <mxCell id="20" value="" style="edgeStyle=none;orthogonalLoop=1;jettySize=auto;html=1;exitX=0.5;exitY=0;exitDx=0;exitDy=0;entryX=1;entryY=0.5;entryDx=0;entryDy=0;" parent="1" source="17" target="6" edge="1">
                    <mxGeometry width="80" relative="1" as="geometry">
                        <mxPoint x="490" y="240" as="sourcePoint"/>
                        <mxPoint x="570" y="240" as="targetPoint"/>
                        <Array as="points">
                            <mxPoint x="480" y="190"/>
                        </Array>
                    </mxGeometry>
                </mxCell>
                <mxCell id="21" value="" style="edgeStyle=none;orthogonalLoop=1;jettySize=auto;html=1;entryX=0;entryY=0.5;entryDx=0;entryDy=0;exitX=0.5;exitY=0;exitDx=0;exitDy=0;" parent="1" source="17" target="11" edge="1">
                    <mxGeometry width="80" relative="1" as="geometry">
                        <mxPoint x="500" y="260" as="sourcePoint"/>
                        <mxPoint x="410" y="200" as="targetPoint"/>
                        <Array as="points">
                            <mxPoint x="480" y="190"/>
                        </Array>
                    </mxGeometry>
                </mxCell>
                <mxCell id="26" value="" style="edgeStyle=none;orthogonalLoop=1;jettySize=auto;html=1;shape=flexArrow;" parent="1" edge="1">
                    <mxGeometry width="80" relative="1" as="geometry">
                        <mxPoint x="470" y="249.5" as="sourcePoint"/>
                        <mxPoint x="390" y="249.5" as="targetPoint"/>
                        <Array as="points">
                            <mxPoint x="430" y="210"/>
                        </Array>
                    </mxGeometry>
                </mxCell>
                <mxCell id="27" value="" style="edgeStyle=none;orthogonalLoop=1;jettySize=auto;html=1;shape=flexArrow;" parent="1" edge="1">
                    <mxGeometry width="80" relative="1" as="geometry">
                        <mxPoint x="390" y="250" as="sourcePoint"/>
                        <mxPoint x="470" y="250" as="targetPoint"/>
                        <Array as="points">
                            <mxPoint x="430" y="290"/>
                        </Array>
                    </mxGeometry>
                </mxCell>
                <mxCell id="28" value="" style="edgeStyle=none;orthogonalLoop=1;jettySize=auto;html=1;shape=flexArrow;" parent="1" edge="1">
                    <mxGeometry width="80" relative="1" as="geometry">
                        <mxPoint x="490" y="249.5" as="sourcePoint"/>
                        <mxPoint x="570" y="249.5" as="targetPoint"/>
                        <Array as="points">
                            <mxPoint x="530" y="210"/>
                        </Array>
                    </mxGeometry>
                </mxCell>
                <mxCell id="29" value="" style="edgeStyle=none;orthogonalLoop=1;jettySize=auto;html=1;shape=flexArrow;" parent="1" edge="1">
                    <mxGeometry width="80" relative="1" as="geometry">
                        <mxPoint x="570" y="250" as="sourcePoint"/>
                        <mxPoint x="490" y="250" as="targetPoint"/>
                        <Array as="points">
                            <mxPoint x="530" y="290"/>
                        </Array>
                    </mxGeometry>
                </mxCell>
                <mxCell id="30" value="&lt;h2&gt;devices&lt;/h2&gt;" style="whiteSpace=wrap;html=1;" parent="1" vertex="1">
                    <mxGeometry x="760" y="80" width="120" height="60" as="geometry"/>
                </mxCell>
                <mxCell id="32" value="" style="edgeStyle=none;shape=flexArrow;html=1;startArrow=block;entryX=0.5;entryY=0;entryDx=0;entryDy=0;" parent="1" target="33" edge="1">
                    <mxGeometry relative="1" as="geometry">
                        <mxPoint x="680" y="190" as="sourcePoint"/>
                        <mxPoint x="820" y="250" as="targetPoint"/>
                        <Array as="points">
                            <mxPoint x="820" y="190"/>
                        </Array>
                    </mxGeometry>
                </mxCell>
                <mxCell id="33" value="&lt;h2&gt;interrupt&lt;/h2&gt;" style="whiteSpace=wrap;html=1;" parent="1" vertex="1">
                    <mxGeometry x="760" y="250" width="120" height="60" as="geometry"/>
                </mxCell>
            </root>
        </mxGraphModel>
    </diagram>
    <diagram id="ZK9Q0EQ-Phg8863UK36i" name="处理器模块">
        <mxGraphModel dx="1198" dy="488" grid="0" gridSize="10" guides="1" tooltips="1" connect="1" arrows="1" fold="1" page="0" pageScale="1" pageWidth="827" pageHeight="1169" math="0" shadow="0">
            <root>
                <mxCell id="0"/>
                <mxCell id="1" parent="0"/>
            </root>
        </mxGraphModel>
    </diagram>
    <diagram id="n2Nk1UqJkd7nt65T3Mer" name="第 4 页">
        <mxGraphModel dx="1198" dy="488" grid="1" gridSize="10" guides="1" tooltips="1" connect="1" arrows="1" fold="1" page="0" pageScale="1" pageWidth="827" pageHeight="1169" math="0" shadow="0">
            <root>
                <mxCell id="0"/>
                <mxCell id="1" parent="0"/>
                <mxCell id="tsttaKYRciWTLmpKxlOf-3" value="" style="edgeStyle=none;html=1;" edge="1" parent="1" source="tsttaKYRciWTLmpKxlOf-1" target="tsttaKYRciWTLmpKxlOf-2">
                    <mxGeometry relative="1" as="geometry"/>
                </mxCell>
                <mxCell id="tsttaKYRciWTLmpKxlOf-1" value="&lt;h2&gt;RTL代码&lt;/h2&gt;" style="whiteSpace=wrap;html=1;" vertex="1" parent="1">
                    <mxGeometry x="280" y="200" width="120" height="60" as="geometry"/>
                </mxCell>
                <mxCell id="tsttaKYRciWTLmpKxlOf-6" value="" style="edgeStyle=none;html=1;" edge="1" parent="1" source="tsttaKYRciWTLmpKxlOf-2" target="tsttaKYRciWTLmpKxlOf-5">
                    <mxGeometry relative="1" as="geometry"/>
                </mxCell>
                <mxCell id="tsttaKYRciWTLmpKxlOf-2" value="&lt;h2&gt;Verilator&lt;/h2&gt;" style="whiteSpace=wrap;html=1;" vertex="1" parent="1">
                    <mxGeometry x="280" y="300" width="120" height="60" as="geometry"/>
                </mxCell>
                <mxCell id="tsttaKYRciWTLmpKxlOf-8" value="" style="edgeStyle=none;html=1;" edge="1" parent="1" source="tsttaKYRciWTLmpKxlOf-5" target="tsttaKYRciWTLmpKxlOf-7">
                    <mxGeometry relative="1" as="geometry"/>
                </mxCell>
                <mxCell id="tsttaKYRciWTLmpKxlOf-5" value="&lt;h2&gt;C++代码&lt;/h2&gt;" style="whiteSpace=wrap;html=1;" vertex="1" parent="1">
                    <mxGeometry x="280" y="400" width="120" height="60" as="geometry"/>
                </mxCell>
                <mxCell id="tsttaKYRciWTLmpKxlOf-7" value="&lt;h2&gt;动态链接库&lt;/h2&gt;" style="whiteSpace=wrap;html=1;" vertex="1" parent="1">
                    <mxGeometry x="280" y="510" width="120" height="60" as="geometry"/>
                </mxCell>
            </root>
        </mxGraphModel>
    </diagram>
</mxfile>